<?xml version="1.0" encoding="utf-8"?>
<svg xmlns="http://www.w3.org/2000/svg" xmlns:xlink="http://www.w3.org/1999/xlink">

<simbol id="ui-arrow-top-right" width="18" height="19" viewBox="0 0 18 19" fill="none" xmlns="http://www.w3.org/2000/svg">
    <path d="M13.9218 5V12.3125C13.9218 12.4244 13.8774 12.5317 13.7983 12.6108C13.7192 12.6899 13.6119 12.7344 13.5 12.7344C13.3881 12.7344 13.2808 12.6899 13.2017 12.6108C13.1225 12.5317 13.0781 12.4244 13.0781 12.3125V6.01953L4.79528 14.2953C4.71696 14.3736 4.61074 14.4176 4.49997 14.4176C4.38921 14.4176 4.28298 14.3736 4.20466 14.2953C4.12634 14.217 4.08234 14.1108 4.08234 14C4.08234 13.8892 4.12634 13.783 4.20466 13.7047L12.4804 5.42188H6.18747C6.07558 5.42188 5.96828 5.37743 5.88916 5.29831C5.81004 5.21919 5.7656 5.11189 5.7656 5C5.7656 4.88811 5.81004 4.78081 5.88916 4.70169C5.96828 4.62257 6.07558 4.57813 6.18747 4.57812H13.5C13.6119 4.57813 13.7192 4.62257 13.7983 4.70169C13.8774 4.78081 13.9218 4.88811 13.9218 5Z" fill="#fff6db"/>
</simbol>

<symbol id="star-01" width="41" height="68" viewBox="0 0 41 68" fill="none">
    <path d="M19.8408 68H19.5749C19.0953 67.9342 18.6581 67.6909 18.3502 67.3185C18.0423 66.9461 17.8863 66.4718 17.913 65.99C18.5445 55.5973 11.886 44.6965 0.950799 38.1914C0.661293 38.0217 0.421265 37.7796 0.254495 37.4891C0.087726 37.1985 0 36.8695 0 36.5348C0 36.2 0.087726 35.871 0.254495 35.5804C0.421265 35.2899 0.661293 35.0478 0.950799 34.8781C12.307 28.4835 19.8741 15.2524 19.7854 1.94396C19.7794 1.4399 19.9723 0.953681 20.3225 0.590078C20.6728 0.226475 21.1523 0.0146305 21.6578 0.000180853C22.1595 -0.006618 22.6447 0.178502 23.0136 0.517479C23.3825 0.856455 23.607 1.3235 23.641 1.82249C24.0066 8.72518 24.3833 15.8488 26.7875 22.2987C29.3357 29.1793 34.133 34.2375 39.6061 35.839C40.022 35.9584 40.3854 36.214 40.6379 36.5644C40.8904 36.9148 41.0173 37.3397 40.9981 37.7707C40.9789 38.2017 40.8148 38.6138 40.5321 38.9405C40.2495 39.2673 39.8647 39.4897 39.4399 39.5719C34.6758 40.5107 30.1999 44.1995 27.1642 49.6775C24.3279 54.8131 22.9762 60.777 21.6246 66.5311C21.5267 66.9354 21.3 67.2971 20.9783 67.562C20.6567 67.8268 20.2575 67.9805 19.8408 68ZM5.5376 36.5458C12.4992 41.226 17.7328 48.049 20.4391 55.9728C21.2908 53.1366 22.4305 50.3945 23.8404 47.7889C26.1351 43.4242 29.6636 39.8262 33.9889 37.4404C28.963 34.1415 25.1758 29.2749 23.22 23.6019C22.3238 21.1515 21.6454 18.6273 21.1925 16.0586C18.2405 24.3455 12.7678 31.5075 5.5376 36.5458Z" fill="#EDB24E"/>
</symbol>

</svg>