<?xml version="1.0" encoding="utf-8" ?>
<svg xmlns="http://www.w3.org/2000/svg" xmlns:xlink="http://www.w3.org/1999/xlink" width="48" height="48">
	<path fill="#F3E3D3" transform="scale(0.09375 0.09375)" d="M122.044 140.168C135.288 130.46 152.87 131.476 162.845 145.317C168.473 153.126 169.093 165.139 172.223 174.368C176 185.509 180.003 196.472 184.913 207.166C191.21 220.881 189.274 229.424 175.789 239.017C170.081 243.077 165.425 243.712 159.301 246.294C158.011 243.273 155.537 240.276 153.75 237.487C135.158 208.475 123.979 174.495 122.044 140.168Z"/>
	<path fill="#F3E3D3" transform="scale(0.09375 0.09375)" d="M266.606 352.6C278.468 326.603 283.031 319.225 312.323 326.303L356.652 337.261C387.889 345.273 383.879 358.929 383.833 388.27C353.408 386.829 308.131 371.238 280.69 359.283C276.374 357.402 270.291 355.438 266.606 352.6Z"/>
	<path fill="#DAC5A7" transform="scale(0.09375 0.09375)" d="M253.761 123.518C318.447 122.825 375.504 163.854 387.556 228.97C388.644 234.85 390.588 246.186 387.016 251.124C383.298 256.265 375.953 257.725 370.812 253.846C365.094 249.531 366.636 240.988 365.687 234.698C364.586 216.523 350.501 192.551 338.077 179.609C312.895 153.379 273.542 139.382 237.604 147.605C231.552 148.99 224.098 152.202 218.523 147.815C213.832 144.124 213.421 136.671 217.143 132.193C222.064 126.271 245.722 124.212 253.761 123.518Z"/>
	<path fill="#DAC5A7" transform="scale(0.09375 0.09375)" d="M251.199 65.4962C349.706 62.9584 437.463 135.151 446.436 235.237C447.121 242.889 448.331 251.599 439.53 254.944C424.016 260.841 424.679 238.4 423.477 230.367C421.977 220.345 419.565 210.445 416.236 200.881C385.486 116.495 292.037 64.1154 205.626 96.7287C198.891 99.2707 191.523 104.437 184.607 99.2252C179.84 95.6318 178.504 88.528 182.385 83.7568C190.919 73.266 238.222 66.7352 251.199 65.4962Z"/>
	<path fill="#DAC5A7" transform="scale(0.09375 0.09375)" d="M256.753 189.516C287.814 188.289 315.269 206.267 321.035 237.884C327.567 273.699 302.549 302.186 268.3 308.244C237.734 310.687 207.968 288.454 203.632 257.667C198.678 222.5 222.149 194.132 256.753 189.516ZM260.469 212.003C228.81 212.545 213.197 253.293 236.533 275.346C243.79 282.204 253.097 285.873 263.093 285.543L264.188 285.498C284.692 284.921 299.959 266.935 299.315 246.841C298.66 226.441 280.576 210.789 260.469 212.003Z"/>
	<path fill="#DAC5A7" transform="scale(0.09375 0.09375)" d="M383.833 388.27C384.006 415.715 367.68 440.632 339.4 445.587C334.316 446.478 329.093 446.271 323.952 446.27C223.809 446.256 132.781 375.609 88.0679 289.067C75.2973 264.349 57.0095 213.171 66.2592 184.582C75.1424 157.125 99.4943 151.794 122.044 140.168C123.979 174.495 135.158 208.475 153.75 237.487C155.537 240.276 158.011 243.273 159.301 246.294C151.307 250.392 145.163 256.541 142.389 265.23C135.54 286.673 151.542 296.819 165.072 309.654L213.082 355.152C226.887 368.019 240.829 377.489 260.469 365.458C262.981 361.517 264.486 356.784 266.606 352.6C270.291 355.438 276.374 357.402 280.69 359.283C308.131 371.238 353.408 386.829 383.833 388.27Z"/>
</svg>
